<svg width="482" height="72" viewBox="0 0 482 72" fill="none" xmlns="http://www.w3.org/2000/svg">
<path d="M47.896 40.564C47.896 42.46 47.392 44.344 46.384 46.216C45.4 48.088 43.972 49.804 42.1 51.364C40.228 52.9 37.972 54.124 35.332 55.036C32.692 55.972 29.716 56.44 26.404 56.44C21.028 56.44 16.372 55.324 12.436 53.092C8.524 50.836 5.5 47.728 3.364 43.768C1.228 39.784 0.16 35.212 0.16 30.052C0.16 26.188 0.796 22.624 2.068 19.36C3.34 16.096 5.116 13.252 7.396 10.828C9.7 8.404 12.376 6.52 15.424 5.176C18.496 3.832 21.808 3.16 25.36 3.16C27.592 3.16 29.392 3.352 30.76 3.736C32.152 4.12 33.268 4.516 34.108 4.924C34.948 5.308 35.668 5.5 36.268 5.5C36.964 5.5 37.528 5.32 37.96 4.96C38.416 4.576 38.872 4.204 39.328 3.844C39.808 3.484 40.408 3.304 41.128 3.304C41.728 3.304 42.22 3.496 42.604 3.88C43.012 4.264 43.348 4.912 43.612 5.824L47.32 18.568C47.536 19.312 47.44 19.984 47.032 20.584C46.648 21.16 46.084 21.544 45.34 21.736C44.524 21.928 43.78 21.88 43.108 21.592C42.436 21.28 41.92 20.704 41.56 19.864C40.336 16.984 38.992 14.752 37.528 13.168C36.064 11.56 34.528 10.444 32.92 9.82C31.336 9.172 29.716 8.848 28.06 8.848C26.308 8.848 24.736 9.268 23.344 10.108C21.976 10.948 20.812 12.16 19.852 13.744C18.892 15.328 18.16 17.248 17.656 19.504C17.152 21.736 16.9 24.256 16.9 27.064C16.9 31.648 17.512 35.476 18.736 38.548C19.96 41.596 21.652 43.888 23.812 45.424C25.996 46.936 28.516 47.692 31.372 47.692C33.868 47.692 36.16 47.056 38.248 45.784C40.336 44.488 42.064 42.592 43.432 40.096C43.84 39.328 44.284 38.824 44.764 38.584C45.244 38.344 45.772 38.284 46.348 38.404C46.9 38.5 47.296 38.74 47.536 39.124C47.776 39.484 47.896 39.964 47.896 40.564ZM69.2209 35.344C69.2209 31.672 69.7009 28.648 70.6609 26.272C71.6209 23.872 72.8929 22.096 74.4769 20.944C76.0849 19.792 77.8369 19.216 79.7329 19.216C82.2769 19.216 84.2209 19.984 85.5649 21.52C86.9329 23.032 87.6169 25.324 87.6169 28.396C87.6169 31.54 86.9809 33.856 85.7089 35.344C84.4609 36.832 82.8289 37.576 80.8129 37.576C78.7729 37.576 77.2369 37.06 76.2049 36.028C75.1969 34.972 74.6929 33.52 74.6929 31.672V30.16C74.6689 29.536 74.5249 29.068 74.2609 28.756C74.0209 28.42 73.6369 28.252 73.1089 28.252C72.6289 28.252 72.1969 28.468 71.8129 28.9C71.4529 29.308 71.1649 29.992 70.9489 30.952C70.7329 31.888 70.6249 33.16 70.6249 34.768L69.2209 35.344ZM69.6169 22.456L70.6249 29.98V47.44C70.6249 48.28 70.7449 48.88 70.9849 49.24C71.2249 49.576 71.7769 49.828 72.6409 49.996L75.3769 50.536C76.0969 50.68 76.6249 50.932 76.9609 51.292C77.2969 51.652 77.4649 52.156 77.4649 52.804C77.4649 53.5 77.2249 54.04 76.7449 54.424C76.2889 54.808 75.6049 55 74.6929 55H54.7849C53.8249 55 53.1289 54.808 52.6969 54.424C52.2649 54.04 52.0489 53.512 52.0489 52.84C52.0489 52.36 52.1689 51.94 52.4089 51.58C52.6489 51.22 53.0449 50.92 53.5969 50.68L54.3889 50.32C54.7489 50.152 55.0009 49.876 55.1449 49.492C55.2889 49.084 55.3609 48.4 55.3609 47.44V30.664C55.3609 29.896 55.2529 29.356 55.0369 29.044C54.8449 28.708 54.5449 28.48 54.1369 28.36L53.3449 28.108C52.8409 27.94 52.4689 27.7 52.2289 27.388C52.0129 27.076 51.9049 26.68 51.9049 26.2C51.9049 25.624 52.0609 25.168 52.3729 24.832C52.7089 24.472 53.2969 24.136 54.1369 23.824L61.8769 20.8C63.5809 20.128 64.8049 19.696 65.5489 19.504C66.2929 19.312 66.8689 19.216 67.2769 19.216C67.9489 19.216 68.4649 19.468 68.8249 19.972C69.1849 20.452 69.4489 21.28 69.6169 22.456ZM127.048 33.112C127.048 34.792 126.592 36.1 125.68 37.036C124.768 37.948 123.46 38.404 121.756 38.404H100.408V34.66H110.02C111.34 34.66 112 34.036 112 32.788C112 29.764 111.652 27.604 110.956 26.308C110.26 25.012 109.336 24.364 108.184 24.364C107.344 24.364 106.588 24.676 105.916 25.3C105.244 25.924 104.704 26.884 104.296 28.18C103.912 29.452 103.72 31.072 103.72 33.04C103.72 37.408 104.704 40.612 106.672 42.652C108.64 44.668 111.328 45.676 114.736 45.676C116.32 45.676 117.76 45.496 119.056 45.136C120.352 44.776 121.624 44.044 122.872 42.94C123.568 42.316 124.096 41.896 124.456 41.68C124.816 41.464 125.164 41.356 125.5 41.356C125.98 41.356 126.328 41.596 126.544 42.076C126.784 42.556 126.904 43.144 126.904 43.84C126.904 45.976 126.172 47.98 124.708 49.852C123.268 51.7 121.252 53.188 118.66 54.316C116.092 55.444 113.092 56.008 109.66 56.008C105.988 56.008 102.688 55.288 99.7602 53.848C96.8322 52.384 94.5162 50.356 92.8122 47.764C91.1082 45.148 90.2562 42.1 90.2562 38.62C90.2562 34.708 91.0362 31.3 92.5962 28.396C94.1562 25.492 96.4242 23.236 99.4002 21.628C102.4 20.02 106.012 19.216 110.236 19.216C113.956 19.216 117.064 19.816 119.56 21.016C122.056 22.216 123.928 23.86 125.176 25.948C126.424 28.036 127.048 30.424 127.048 33.112ZM152.757 50.068V49.24L151.605 49.204V25.948C151.605 25.036 151.353 24.304 150.849 23.752C150.369 23.2 149.709 22.924 148.869 22.924C148.245 22.924 147.693 23.08 147.213 23.392C146.757 23.68 146.529 24.076 146.529 24.58V28.504C146.529 30.52 145.833 32.08 144.441 33.184C143.073 34.288 141.105 34.84 138.537 34.84C136.353 34.84 134.721 34.384 133.641 33.472C132.585 32.536 132.057 31.24 132.057 29.584C132.057 28 132.777 26.416 134.217 24.832C135.657 23.248 137.817 21.928 140.697 20.872C143.601 19.816 147.249 19.288 151.641 19.288C156.729 19.288 160.509 20.224 162.981 22.096C165.453 23.944 166.689 26.476 166.689 29.692V46.9C166.689 47.356 166.797 47.74 167.013 48.052C167.253 48.34 167.613 48.484 168.093 48.484C168.501 48.484 168.825 48.376 169.065 48.16C169.329 47.944 169.569 47.728 169.785 47.512C169.953 47.344 170.121 47.2 170.289 47.08C170.481 46.96 170.697 46.9 170.937 46.9C171.345 46.9 171.633 47.056 171.801 47.368C171.993 47.656 172.089 48.028 172.089 48.484C172.089 49.54 171.705 50.656 170.937 51.832C170.169 52.984 169.017 53.968 167.481 54.784C165.969 55.6 164.085 56.008 161.829 56.008C159.165 56.008 156.981 55.444 155.277 54.316C153.597 53.188 152.757 51.772 152.757 50.068ZM130.761 47.332C130.761 44.044 132.249 41.452 135.225 39.556C138.201 37.636 142.377 36.676 147.753 36.676C149.169 36.676 150.405 36.772 151.461 36.964C152.517 37.156 153.381 37.432 154.053 37.792L152.829 40.924C152.325 40.636 151.845 40.432 151.389 40.312C150.957 40.192 150.477 40.132 149.949 40.132C148.773 40.132 147.837 40.528 147.141 41.32C146.469 42.088 146.133 43.204 146.133 44.668C146.133 46.204 146.469 47.38 147.141 48.196C147.813 48.988 148.701 49.384 149.805 49.384C150.501 49.384 151.149 49.228 151.749 48.916C152.373 48.58 152.841 48.196 153.153 47.764L154.017 50.644C152.865 52.348 151.185 53.668 148.977 54.604C146.793 55.54 144.453 56.008 141.957 56.008C138.597 56.008 135.885 55.18 133.821 53.524C131.781 51.868 130.761 49.804 130.761 47.332ZM175.55 24.976L174.398 24.508C173.87 24.292 173.474 24.016 173.21 23.68C172.946 23.344 172.814 22.936 172.814 22.456C172.814 21.76 173.042 21.232 173.498 20.872C173.978 20.488 174.59 20.296 175.334 20.296H177.314C177.77 20.296 178.19 20.176 178.574 19.936C178.982 19.696 179.498 19.264 180.122 18.64L185.99 12.7C186.782 11.908 187.514 11.32 188.186 10.936C188.882 10.552 189.542 10.36 190.166 10.36C190.862 10.36 191.402 10.588 191.786 11.044C192.194 11.5 192.398 12.16 192.398 13.024V41.896C192.398 43.648 192.698 44.98 193.298 45.892C193.898 46.804 194.762 47.26 195.89 47.26C196.802 47.26 197.498 47.032 197.978 46.576C198.482 46.12 198.878 45.604 199.166 45.028C199.478 44.428 199.802 43.9 200.138 43.444C200.474 42.988 200.93 42.76 201.506 42.76C201.986 42.76 202.37 42.928 202.658 43.264C202.946 43.6 203.09 44.176 203.09 44.992C203.09 47.032 202.502 48.892 201.326 50.572C200.15 52.228 198.53 53.548 196.466 54.532C194.402 55.516 192.05 56.008 189.41 56.008C185.498 56.008 182.474 55.072 180.338 53.2C178.202 51.304 177.134 48.448 177.134 44.632V27.316C177.134 26.62 177.002 26.116 176.738 25.804C176.498 25.492 176.102 25.216 175.55 24.976ZM187.142 25.408V20.296H200.282C201.026 20.296 201.614 20.464 202.046 20.8C202.502 21.112 202.73 21.568 202.73 22.168C202.73 23.08 202.286 23.848 201.398 24.472C200.51 25.096 199.046 25.408 197.006 25.408H187.142ZM242.501 33.112C242.501 34.792 242.045 36.1 241.133 37.036C240.221 37.948 238.913 38.404 237.209 38.404H215.861V34.66H225.473C226.793 34.66 227.453 34.036 227.453 32.788C227.453 29.764 227.105 27.604 226.409 26.308C225.713 25.012 224.789 24.364 223.637 24.364C222.797 24.364 222.041 24.676 221.369 25.3C220.697 25.924 220.157 26.884 219.749 28.18C219.365 29.452 219.173 31.072 219.173 33.04C219.173 37.408 220.157 40.612 222.125 42.652C224.093 44.668 226.781 45.676 230.189 45.676C231.773 45.676 233.213 45.496 234.509 45.136C235.805 44.776 237.077 44.044 238.325 42.94C239.021 42.316 239.549 41.896 239.909 41.68C240.269 41.464 240.617 41.356 240.953 41.356C241.433 41.356 241.781 41.596 241.997 42.076C242.237 42.556 242.357 43.144 242.357 43.84C242.357 45.976 241.625 47.98 240.161 49.852C238.721 51.7 236.705 53.188 234.113 54.316C231.545 55.444 228.545 56.008 225.113 56.008C221.441 56.008 218.141 55.288 215.213 53.848C212.285 52.384 209.969 50.356 208.265 47.764C206.561 45.148 205.709 42.1 205.709 38.62C205.709 34.708 206.489 31.3 208.049 28.396C209.609 25.492 211.877 23.236 214.853 21.628C217.853 20.02 221.465 19.216 225.689 19.216C229.409 19.216 232.517 19.816 235.013 21.016C237.509 22.216 239.381 23.86 240.629 25.948C241.877 28.036 242.501 30.424 242.501 33.112ZM282.976 50.068V49.24L281.824 49.204V25.948C281.824 25.036 281.572 24.304 281.068 23.752C280.588 23.2 279.928 22.924 279.088 22.924C278.464 22.924 277.912 23.08 277.432 23.392C276.976 23.68 276.748 24.076 276.748 24.58V28.504C276.748 30.52 276.052 32.08 274.66 33.184C273.292 34.288 271.324 34.84 268.756 34.84C266.572 34.84 264.94 34.384 263.86 33.472C262.804 32.536 262.276 31.24 262.276 29.584C262.276 28 262.996 26.416 264.436 24.832C265.876 23.248 268.036 21.928 270.916 20.872C273.82 19.816 277.468 19.288 281.86 19.288C286.948 19.288 290.728 20.224 293.2 22.096C295.672 23.944 296.908 26.476 296.908 29.692V46.9C296.908 47.356 297.016 47.74 297.232 48.052C297.472 48.34 297.832 48.484 298.312 48.484C298.72 48.484 299.044 48.376 299.284 48.16C299.548 47.944 299.788 47.728 300.004 47.512C300.172 47.344 300.34 47.2 300.508 47.08C300.7 46.96 300.916 46.9 301.156 46.9C301.564 46.9 301.852 47.056 302.02 47.368C302.212 47.656 302.308 48.028 302.308 48.484C302.308 49.54 301.924 50.656 301.156 51.832C300.388 52.984 299.236 53.968 297.7 54.784C296.188 55.6 294.304 56.008 292.048 56.008C289.384 56.008 287.2 55.444 285.496 54.316C283.816 53.188 282.976 51.772 282.976 50.068ZM260.98 47.332C260.98 44.044 262.468 41.452 265.444 39.556C268.42 37.636 272.596 36.676 277.972 36.676C279.388 36.676 280.624 36.772 281.68 36.964C282.736 37.156 283.6 37.432 284.272 37.792L283.048 40.924C282.544 40.636 282.064 40.432 281.608 40.312C281.176 40.192 280.696 40.132 280.168 40.132C278.992 40.132 278.056 40.528 277.36 41.32C276.688 42.088 276.352 43.204 276.352 44.668C276.352 46.204 276.688 47.38 277.36 48.196C278.032 48.988 278.92 49.384 280.024 49.384C280.72 49.384 281.368 49.228 281.968 48.916C282.592 48.58 283.06 48.196 283.372 47.764L284.236 50.644C283.084 52.348 281.404 53.668 279.196 54.604C277.012 55.54 274.672 56.008 272.176 56.008C268.816 56.008 266.104 55.18 264.04 53.524C262 51.868 260.98 49.804 260.98 47.332ZM337.022 22.456V25.696L337.742 27.064V64.216C337.742 65.176 337.814 65.848 337.958 66.232C338.102 66.64 338.354 66.928 338.714 67.096L339.506 67.456C340.058 67.696 340.454 67.996 340.694 68.356C340.934 68.716 341.054 69.136 341.054 69.616C341.054 70.288 340.838 70.816 340.406 71.2C339.974 71.584 339.278 71.776 338.318 71.776H321.902C320.942 71.776 320.246 71.584 319.814 71.2C319.382 70.816 319.166 70.288 319.166 69.616C319.166 69.136 319.286 68.716 319.526 68.356C319.766 67.996 320.162 67.696 320.714 67.456L321.506 67.096C321.866 66.928 322.118 66.64 322.262 66.232C322.406 65.848 322.478 65.176 322.478 64.216V30.52C322.478 29.752 322.37 29.212 322.154 28.9C321.962 28.564 321.662 28.336 321.254 28.216L320.462 27.964C319.958 27.796 319.586 27.556 319.346 27.244C319.13 26.932 319.022 26.536 319.022 26.056C319.022 25.48 319.178 25.048 319.49 24.76C319.802 24.448 320.39 24.1 321.254 23.716L328.526 20.584C329.702 20.08 330.674 19.732 331.442 19.54C332.21 19.324 332.906 19.216 333.53 19.216C334.706 19.216 335.582 19.528 336.158 20.152C336.734 20.752 337.022 21.52 337.022 22.456ZM335.042 32.464L332.486 30.016C334.55 26.656 336.866 24.016 339.434 22.096C342.002 20.176 344.942 19.216 348.254 19.216C351.11 19.216 353.666 19.948 355.922 21.412C358.178 22.876 359.954 24.904 361.25 27.496C362.57 30.064 363.23 33.04 363.23 36.424C363.23 40.336 362.426 43.768 360.818 46.72C359.21 49.648 357.014 51.928 354.23 53.56C351.446 55.192 348.302 56.008 344.798 56.008C341.894 56.008 339.35 55.396 337.166 54.172C335.006 52.924 333.134 51.04 331.55 48.52L335.474 45.856C336.578 47.44 337.622 48.568 338.606 49.24C339.59 49.888 340.658 50.212 341.81 50.212C342.938 50.212 343.922 49.804 344.762 48.988C345.626 48.172 346.286 46.864 346.742 45.064C347.222 43.264 347.462 40.9 347.462 37.972C347.462 35.284 347.21 33.124 346.706 31.492C346.226 29.836 345.566 28.636 344.726 27.892C343.886 27.124 342.914 26.74 341.81 26.74C340.49 26.74 339.278 27.196 338.174 28.108C337.07 28.996 336.026 30.448 335.042 32.464ZM385.625 3.88V47.44C385.625 48.4 385.697 49.084 385.841 49.492C385.985 49.876 386.237 50.152 386.597 50.32L387.389 50.68C387.941 50.92 388.337 51.22 388.577 51.58C388.817 51.94 388.937 52.36 388.937 52.84C388.937 53.512 388.721 54.04 388.289 54.424C387.857 54.808 387.161 55 386.201 55H369.785C368.825 55 368.129 54.808 367.697 54.424C367.265 54.04 367.049 53.512 367.049 52.84C367.049 52.36 367.169 51.94 367.409 51.58C367.649 51.22 368.045 50.92 368.597 50.68L369.389 50.32C369.749 50.152 370.001 49.876 370.145 49.492C370.289 49.084 370.361 48.4 370.361 47.44V11.944C370.361 11.176 370.253 10.636 370.037 10.324C369.845 9.988 369.545 9.76 369.137 9.64L368.345 9.388C367.841 9.22 367.469 8.98 367.229 8.668C367.013 8.356 366.905 7.96 366.905 7.48C366.905 6.904 367.061 6.448 367.373 6.112C367.685 5.776 368.273 5.44 369.137 5.104L377.129 2.008C378.425 1.504 379.445 1.156 380.189 0.963998C380.933 0.747997 381.593 0.639996 382.169 0.639996C383.321 0.639996 384.185 0.951996 384.761 1.576C385.337 2.176 385.625 2.944 385.625 3.88ZM414.249 50.068V49.24L413.097 49.204V25.948C413.097 25.036 412.845 24.304 412.341 23.752C411.861 23.2 411.201 22.924 410.361 22.924C409.737 22.924 409.185 23.08 408.705 23.392C408.249 23.68 408.021 24.076 408.021 24.58V28.504C408.021 30.52 407.325 32.08 405.933 33.184C404.565 34.288 402.597 34.84 400.029 34.84C397.845 34.84 396.213 34.384 395.133 33.472C394.077 32.536 393.549 31.24 393.549 29.584C393.549 28 394.269 26.416 395.709 24.832C397.149 23.248 399.309 21.928 402.189 20.872C405.093 19.816 408.741 19.288 413.133 19.288C418.221 19.288 422.001 20.224 424.473 22.096C426.945 23.944 428.181 26.476 428.181 29.692V46.9C428.181 47.356 428.289 47.74 428.505 48.052C428.745 48.34 429.105 48.484 429.585 48.484C429.993 48.484 430.317 48.376 430.557 48.16C430.821 47.944 431.061 47.728 431.277 47.512C431.445 47.344 431.613 47.2 431.781 47.08C431.973 46.96 432.189 46.9 432.429 46.9C432.837 46.9 433.125 47.056 433.293 47.368C433.485 47.656 433.581 48.028 433.581 48.484C433.581 49.54 433.197 50.656 432.429 51.832C431.661 52.984 430.509 53.968 428.973 54.784C427.461 55.6 425.577 56.008 423.321 56.008C420.657 56.008 418.473 55.444 416.769 54.316C415.089 53.188 414.249 51.772 414.249 50.068ZM392.253 47.332C392.253 44.044 393.741 41.452 396.717 39.556C399.693 37.636 403.869 36.676 409.245 36.676C410.661 36.676 411.897 36.772 412.953 36.964C414.009 37.156 414.873 37.432 415.545 37.792L414.321 40.924C413.817 40.636 413.337 40.432 412.881 40.312C412.449 40.192 411.969 40.132 411.441 40.132C410.265 40.132 409.329 40.528 408.633 41.32C407.961 42.088 407.625 43.204 407.625 44.668C407.625 46.204 407.961 47.38 408.633 48.196C409.305 48.988 410.193 49.384 411.297 49.384C411.993 49.384 412.641 49.228 413.241 48.916C413.865 48.58 414.333 48.196 414.645 47.764L415.509 50.644C414.357 52.348 412.677 53.668 410.469 54.604C408.285 55.54 405.945 56.008 403.449 56.008C400.089 56.008 397.377 55.18 395.313 53.524C393.273 51.868 392.253 49.804 392.253 47.332ZM454.25 22.456V47.44C454.25 48.4 454.322 49.072 454.466 49.456C454.61 49.84 454.862 50.128 455.222 50.32L455.942 50.716C456.734 51.172 457.13 51.832 457.13 52.696C457.13 54.232 456.206 55 454.358 55H438.41C437.45 55 436.754 54.808 436.322 54.424C435.89 54.04 435.674 53.512 435.674 52.84C435.674 52.36 435.794 51.94 436.034 51.58C436.274 51.22 436.67 50.92 437.222 50.68L438.014 50.32C438.374 50.152 438.626 49.876 438.77 49.492C438.914 49.084 438.986 48.4 438.986 47.44V30.52C438.986 29.752 438.878 29.212 438.662 28.9C438.47 28.564 438.17 28.336 437.762 28.216L436.97 27.964C436.466 27.796 436.094 27.556 435.854 27.244C435.638 26.932 435.53 26.536 435.53 26.056C435.53 25.48 435.686 25.024 435.998 24.688C436.31 24.352 436.898 24.016 437.762 23.68L445.754 20.584C446.978 20.104 447.962 19.756 448.706 19.54C449.474 19.324 450.218 19.216 450.938 19.216C452.018 19.216 452.834 19.528 453.386 20.152C453.962 20.752 454.25 21.52 454.25 22.456ZM452.954 31.24L450.794 28.936L451.874 27.928C455.258 24.688 458.198 22.432 460.694 21.16C463.19 19.864 465.482 19.216 467.57 19.216C470.786 19.216 473.378 20.284 475.346 22.42C477.314 24.532 478.298 27.304 478.298 30.736V47.44C478.298 48.4 478.37 49.084 478.514 49.492C478.658 49.876 478.91 50.152 479.27 50.32L480.062 50.68C480.614 50.92 481.01 51.22 481.25 51.58C481.49 51.94 481.61 52.36 481.61 52.84C481.61 53.512 481.394 54.04 480.962 54.424C480.53 54.808 479.834 55 478.874 55H462.926C461.078 55 460.154 54.232 460.154 52.696C460.154 51.832 460.55 51.172 461.342 50.716L462.062 50.32C462.422 50.128 462.674 49.84 462.818 49.456C462.962 49.072 463.034 48.4 463.034 47.44V32.896C463.034 31.36 462.674 30.208 461.954 29.44C461.258 28.672 460.274 28.288 459.002 28.288C458.21 28.288 457.382 28.444 456.518 28.756C455.654 29.068 454.886 29.524 454.214 30.124L452.954 31.24Z" fill="#FEFCF7"/>
</svg>
